<svg id="Capa_1" data-name="Capa 1" xmlns="http://www.w3.org/2000/svg" viewBox="0 0 380.47 127.61"><defs><style>.cls-1{fill:#4bb8a9;}.cls-2{fill:#ef798f;}.cls-3{fill:#ffd500;}.cls-4{fill:#5fbfed;}.cls-5{fill:#ab86bc;}.cls-6{fill:#f59a00;}</style></defs><path class="cls-1" d="M375.18,51.81v-4c-2.64,0-3.95.66-3.95,2S372.54,51.81,375.18,51.81Z" transform="translate(-22.36 -21.24)"/><path class="cls-2" d="M168.79,93.49,182.89,55a8.91,8.91,0,0,1,11.34-5.29c5.46,2,6.23,7.57,5,11.22-8.89,24.58-17.12,47-22.44,61.66a7.31,7.31,0,0,1-6.9,4.24,8.41,8.41,0,0,1-7.4-4.63c-.94-1.93-12.92-27.27-22.28-48.14-1.24-3.65-.83-9.39,4.63-11.39s9.56.67,11.66,5Z" transform="translate(-22.36 -21.24)"/><path class="cls-3" d="M237,122.8c0,3.37-1.58,10-8.48,10-7.23,0-9-6.62-9-10V120H209.45v2.83c0,3.37-.86,10-8.43,10-7.23,0-8.92-6.69-9-10V102.54c0-16.88,7-29.29,22.39-29.29C231,73.25,237,85.66,237,102.54Zm-27.57-20.26h10.13c0-6.3-1.69-11.41-5.06-11.41S209.45,95.79,209.45,102.54Z" transform="translate(-22.36 -21.24)"/><path class="cls-1" d="M292.82,122.57h-33.9V68.35c0-3.87-2.9-7.82-8.69-7.82s-8.63,3.91-8.69,7.68v63.05c0,5.79,4.25,8.68,8.11,8.68h43a8.7,8.7,0,0,0,.13-17.37Z" transform="translate(-22.36 -21.24)"/><path class="cls-4" d="M283.76,62q-20.33,0-20.32,25.52v5.08q0,25.39,20.32,25.4t20.32-25.4V87.56Q304.08,62,283.76,62Zm3,32.55c0,4-1,5.12-3,5.12s-3-1.17-3-5.12V86.37q0-6,3-6t3,6Z" transform="translate(-22.36 -21.24)"/><path class="cls-5" d="M354.9,97.29v5.79q0,29-23.17,29t-23.17-29V97.29q0-29.1,23.17-29.1T354.9,97.29Zm-29-.14V103q0,11.58,5.79,11.58T337.52,103v-5.8q0-11.72-5.79-11.72T325.94,97.15Z" transform="translate(-22.36 -21.24)"/><path class="cls-6" d="M376.78,106.59v7.25c0,3.46-3.34,7.71-8.53,7.71-5.77,0-8.79-4.21-8.85-7.59V70.12c.06-3.35,2.62-5,7.71-5.07H375c17.31,0,27.85,6.92,27.85,20.77S394.09,106.59,376.78,106.59Zm0-26V91c6.93,0,8.76-1.73,8.76-5.19S383.71,80.63,376.78,80.63Z" transform="translate(-22.36 -21.24)"/><path class="cls-1" d="M389.48,33.1h-8.39V55.8c0,1.28-1,1.92-2.92,1.93h-3q-9.87,0-9.87-7.89t9.87-7.9V33.1H346.23a13.36,13.36,0,1,0,0,26.71h5.09a106.47,106.47,0,0,1-6.43-9.1v4.16c0,1.23-.91,1.84-2.75,1.84s-2.73-.6-2.75-1.79V38.31c0-1.19.93-1.79,2.75-1.79s2.75.61,2.75,1.84v6a28.78,28.78,0,0,1,3.5-5.42,6.29,6.29,0,0,1,5.53-2.38,2.5,2.5,0,0,1,2,2.38,2,2,0,0,1-1.48,2.34q-1.61.49-5.85,6.26c2.74,3.72,9.14,11.48,10.52,12.28h30.4a13.36,13.36,0,0,0,0-26.71Zm-25.81,22c0,1.32-1,2-3,2s-2.94-.64-3-1.93v-10c0-1.28,1-1.93,3-1.93s3,.66,3,2Zm0-15.78a1.74,1.74,0,0,1-2,2h-2a1.74,1.74,0,0,1-2-2v-2a1.75,1.75,0,0,1,2-2h2a1.75,1.75,0,0,1,2,2Zm32.08,15.91a9,9,0,0,1-5.9,1.75,8.77,8.77,0,0,1-5.32-1.55,3.71,3.71,0,0,1-1.88-2.92c0-1.59,1-2.38,2.88-2.38a3.57,3.57,0,0,1,2.21.93A5.1,5.1,0,0,0,391,52c1.11,0,1.67-.35,1.67-1.06,0-.37-.83-.71-2.49-1l-1.56-.43c-.73-.19-1.33-.36-1.78-.51a6.9,6.9,0,0,1-3.33-2,4.27,4.27,0,0,1-.9-2.7,4.8,4.8,0,0,1,2-4,9.41,9.41,0,0,1,5.9-1.64,9.31,9.31,0,0,1,5.32,1.45c1.26.85,1.88,1.75,1.88,2.72q0,2.22-2.88,2.22a3.75,3.75,0,0,1-2.21-.86,5.29,5.29,0,0,0-3.26-.87c-1.11,0-1.67.37-1.67,1,0,.34.83.65,2.49.91l1.56.4c.74.19,1.33.34,1.78.47a11.29,11.29,0,0,1,1.81.7,8.79,8.79,0,0,1,.88.56,4.06,4.06,0,0,1,.63.57,5,5,0,0,1,.91,3A5.29,5.29,0,0,1,395.75,55.24Z" transform="translate(-22.36 -21.24)"/><path class="cls-1" d="M54.17,68.79a1.53,1.53,0,0,1-.71-.18,1.5,1.5,0,0,1-.61-2,7.62,7.62,0,0,1,2.4-2.55,8.14,8.14,0,0,1,4.07-1.16,1.5,1.5,0,0,1,0,3,5.13,5.13,0,0,0-2.4.66A4.62,4.62,0,0,0,55.49,68,1.5,1.5,0,0,1,54.17,68.79Z" transform="translate(-22.36 -21.24)"/><path class="cls-1" d="M65.69,72.88c-1-3-3.39-4.94-5.36-4.29s-2.76,3.62-1.77,6.63,3.39,4.94,5.36,4.29S66.68,75.89,65.69,72.88Zm-2.91-.68A1,1,0,1,1,63.25,71,.92.92,0,0,1,62.78,72.2Z" transform="translate(-22.36 -21.24)"/><path class="cls-1" d="M104.11,68.28a1.52,1.52,0,0,1-1.28-.72,3.92,3.92,0,0,0-1.45-1.27,6.28,6.28,0,0,0-2.55-.48,1.5,1.5,0,1,1-.15-3,9,9,0,0,1,4,.79A6.9,6.9,0,0,1,105.4,66a1.5,1.5,0,0,1-1.29,2.27Z" transform="translate(-22.36 -21.24)"/><path class="cls-1" d="M89.2,87.87a1.49,1.49,0,0,0-2,.56,4.54,4.54,0,0,1-3.52,2.13h0c-1.73,0-2.32-2.24-2.51-3.38,2.73-.84,5.14-4.22,5.05-5.81-.1-1.81-1.1-2.38-4.46-2.83a14.37,14.37,0,0,0-6,.41s-3.16.55-2.63,3.39A6.59,6.59,0,0,0,78,87.11c-.07,1-.45,3.19-2.47,3.47s-3.33-2-3.36-2a1.51,1.51,0,0,0-2.06-.47,1.49,1.49,0,0,0-.48,2.06c.09.15,2.18,3.43,5.57,3.43a4.71,4.71,0,0,0,.74-.06,5.22,5.22,0,0,0,3.64-2.13,4.76,4.76,0,0,0,4,2.14h0a7.54,7.54,0,0,0,6.11-3.63A1.5,1.5,0,0,0,89.2,87.87ZM75.9,84.55c-.38.17-1-.47-1.45-1.43s-.45-1.87-.07-2,1,.47,1.46,1.43S76.29,84.38,75.9,84.55Z" transform="translate(-22.36 -21.24)"/><path class="cls-1" d="M110.1,57.13A15.36,15.36,0,0,0,112,55.67c3.66-3.37,4.22-7.11,2.38-9.11s-5.39-1.5-9,1.88a14.91,14.91,0,0,0-1.18,1.21A37.26,37.26,0,0,1,110.1,57.13Z" transform="translate(-22.36 -21.24)"/><path class="cls-1" d="M44.69,55.83a33.4,33.4,0,0,1,6.25-7.56c-1.92-2.35-5-3-7.14-1.52s-2.46,5-.58,7.6A6.88,6.88,0,0,0,44.69,55.83Z" transform="translate(-22.36 -21.24)"/><path class="cls-1" d="M136.46,51a18.58,18.58,0,0,1-8.22-3.69c-5.35-4.33-9.41-15.4-17.78-20.21-12.71-7.29-23.86-1-26.39.68-1.21-1.6-8.95-10.47-27.92-4.42C35.35,30,32,44.1,31.6,50.77c0,.32,0,.61-.06.9a15.47,15.47,0,0,1-3.47-3.89,1.77,1.77,0,0,0-3.07.11,21.28,21.28,0,0,0-2.57,11.3c.49,5.49,3.54,9.34,7.18,10.93l-.18.17c-6,6.14-4.57,15-3,20a2,2,0,0,0,3.51.64,26.15,26.15,0,0,1,3.28-3.59c-.14.4-.28.81-.41,1.25-1.84,6.23,2.85,14.24,6,17a17.43,17.43,0,0,0,4.89,2.88A2.48,2.48,0,0,0,47,106.86l1-3.71a15.39,15.39,0,0,0,2.26,5.28c-.36,0-.74.11-1.15.19-5,.95-7.56,4.57-7,9.93.45,4.37,2.31,8,4.37,11.84a11,11,0,0,0-3.6,4.08c-1.78,3.64-.84,8.46,2,10.39l.06.06c.73.64,2.63,2.31,6.82,2.31a19.74,19.74,0,0,0,3.85-.4,2.07,2.07,0,0,0,.7-.29,26.51,26.51,0,0,0,11.27,2.3c4.52,0,8.62-1,10.42-2.47a15.15,15.15,0,0,0,1.58-1.51,14.33,14.33,0,0,0,1.59,1.51c1.8,1.51,5.89,2.47,10.42,2.47a26.54,26.54,0,0,0,11.27-2.3,2,2,0,0,0,.7.29,19.66,19.66,0,0,0,3.85.4c4.18,0,6.09-1.67,6.81-2.31l.06-.06c2.85-1.93,3.79-6.75,2-10.39a11,11,0,0,0-3.6-4.08c2.06-3.81,3.93-7.47,4.38-11.84.55-5.36-2-9-7-9.93-.73-.13-1.33-.22-1.91-.28a17.62,17.62,0,0,0,3.8-3,25.9,25.9,0,0,0,7-15,16.53,16.53,0,0,1-.27,6.38l-.09.33a1.87,1.87,0,0,0,2.92,2c.27-.21.55-.43.82-.67,3.22-2.8,3-5.31,3-5.31l1.2,1.2a3,3,0,0,0,4.81-.8c1.61-3.46,3.05-9.34,0-16.87a15,15,0,0,0-6.48-7.45,20,20,0,0,0,8.67-5.49,31.14,31.14,0,0,0,5.27-8.27A3.19,3.19,0,0,0,136.46,51ZM46.12,118.14c-.34-3.31.83-5,3.78-5.6a16.19,16.19,0,0,1,1.63-.23,13.29,13.29,0,0,1,2.21-.06,31.12,31.12,0,0,0,.2,15.23,19.2,19.2,0,0,0-3.9,1C48.11,124.93,46.49,121.76,46.12,118.14Zm6.64,25.06c-3.38.25-4.66-.87-5.13-1.28a4.6,4.6,0,0,0-.44-.35c-1.1-.72-1.64-3.38-.68-5.34a7.1,7.1,0,0,1,2.6-2.8,14.07,14.07,0,0,1,5.94-2.07l.06.17a10.14,10.14,0,0,0-2.35,11.67Zm24.34-1.73a5.16,5.16,0,0,1-1.63,1.85c-2,1.65-12.65,2.66-18.41-.95-.78-.49-1.57-2.71-1.06-4.78a7.21,7.21,0,0,1,3.55-4.48,14.63,14.63,0,0,1,7.31-2A12.91,12.91,0,0,1,75,133.9,6.53,6.53,0,0,1,77.1,141.47Zm25.11.9c-5.76,3.61-16.45,2.6-18.41.95a5.21,5.21,0,0,1-1.64-1.85,6.53,6.53,0,0,1,2.11-7.57,12.88,12.88,0,0,1,8.13-2.79,14.67,14.67,0,0,1,7.32,2,7.21,7.21,0,0,1,3.55,4.48C103.78,139.66,103,141.88,102.21,142.37Zm10.55-6.14c1,2,.42,4.62-.68,5.34a3.54,3.54,0,0,0-.45.35c-.46.41-1.74,1.53-5.13,1.28a10.16,10.16,0,0,0,.64-6.57,10.38,10.38,0,0,0-3-5.1l0-.17a14,14,0,0,1,5.94,2.07A7.13,7.13,0,0,1,112.76,136.23Zm.39-18.09c-.37,3.62-2,6.79-3.92,10.36a19.37,19.37,0,0,0-3.9-1,31.25,31.25,0,0,0,.19-15.23,13.23,13.23,0,0,1,2.21.06,16,16,0,0,1,1.64.23C112.32,113.11,113.49,114.83,113.15,118.14Zm-12-6.88c1.93,6.88,1.42,11.82-.42,17.84a19.36,19.36,0,0,0-8.25-2,.49.49,0,0,0-.17,0,17,17,0,0,0-10.62,3.72,11.63,11.63,0,0,0-2.07,2.27,11.57,11.57,0,0,0-2.06-2.27A17,17,0,0,0,67,127.12a.54.54,0,0,0-.18,0,19.32,19.32,0,0,0-8.24,2c-1.69-5.51-2.26-10.12-.85-16.15a16.44,16.44,0,0,0,10.38-1.71,8.49,8.49,0,0,0,9.6,4.86c5.43-.88,6.68.55,8.11,1.44a3.44,3.44,0,0,0,4.36-.71,16.89,16.89,0,0,1,3.53-3.09,30.43,30.43,0,0,1,3-1.62,33.22,33.22,0,0,0,4.5-.86Zm18.13-54.8a12.56,12.56,0,0,1-6.9,4.65,34,34,0,0,1,2.12,6.42l.12.54c.15.71.27,1.43.37,2.15A32.2,32.2,0,0,1,106.23,97h0c-.51.53-1,1-1.58,1.54l-.23.21c-.48.43-1,.84-1.45,1.24l-.27.21c-.56.45-1.13.88-1.72,1.29l-.23.15a39.21,39.21,0,0,1-30.41,5.73C55.67,104.22,44.7,93.68,41.14,81c-.11-.38-.22-.76-.32-1.14-.17-.7-.32-1.4-.44-2.1a32.25,32.25,0,0,1-.23-9.62c0-.31.08-.63.13-.94.09-.59.19-1.17.31-1.76A33.21,33.21,0,0,1,41.91,61,1.08,1.08,0,0,0,42,60.8l-.24-.16-.51-.33L41,60.14l-.49-.37-.22-.2c-.15-.13-.31-.26-.45-.4L39.65,59l-.43-.44L39,58.24l-.37-.42-.19-.28-.36-.48a12.86,12.86,0,0,1-.94-1.67c-.08-.16-.14-.32-.21-.48-2.49-5.85-.35-12.49,5-15,4.41-2.1,9.63-.69,13,3.07a59.26,59.26,0,0,1-2.1,8.79,4.21,4.21,0,0,0,3.58,5.47c5.82.62,15.26.27,22.15-6.66a30.63,30.63,0,0,0,5.21-6.79,16.72,16.72,0,0,0,8.11,9.55,20.61,20.61,0,0,0,9.42,2.57,2.71,2.71,0,0,0,2.56-3.71,21,21,0,0,1-.85-2.63,45.35,45.35,0,0,1-.85-6.62c4-5,10.9-6.16,15.62-2.62S123.25,51.18,119.29,56.46Z" transform="translate(-22.36 -21.24)"/><path class="cls-1" d="M99.31,75.52a1.51,1.51,0,0,1-1.43-.33,3.89,3.89,0,0,0-1.74-.82,6.18,6.18,0,0,0-2.58.25,1.49,1.49,0,0,1-1-2.82,9,9,0,0,1,4.1-.37A6.89,6.89,0,0,1,99.92,73a1.49,1.49,0,0,1,.06,2.11A1.47,1.47,0,0,1,99.31,75.52Z" transform="translate(-22.36 -21.24)"/></svg>